<svg width="121" height="12" viewBox="0 0 121 12" fill="none" xmlns="http://www.w3.org/2000/svg">
<path d="M7.64258 6.92578C7.64258 7.61849 7.44206 8.14941 7.04102 8.51855C6.64453 8.8877 6.08171 9.07227 5.35254 9.07227C4.62337 9.07227 4.04232 8.83073 3.60938 8.34766C3.18099 7.86003 2.9668 7.20605 2.9668 6.38574V5.61328C2.9668 4.82031 3.18327 4.18229 3.61621 3.69922C4.05371 3.21159 4.63249 2.96777 5.35254 2.96777C6.09538 2.96777 6.66276 3.1569 7.05469 3.53516C7.45117 3.90885 7.64941 4.43522 7.64941 5.11426H6.58301C6.58301 4.67676 6.47819 4.36458 6.26855 4.17773C6.05892 3.98633 5.75358 3.89062 5.35254 3.89062C4.93327 3.89062 4.60514 4.04557 4.36816 4.35547C4.13574 4.66536 4.01953 5.08919 4.01953 5.62695V6.42676C4.01953 6.96452 4.13802 7.38607 4.375 7.69141C4.61198 7.99674 4.93783 8.14941 5.35254 8.14941C5.75814 8.14941 6.06348 8.05827 6.26855 7.87598C6.47363 7.68913 6.57617 7.3724 6.57617 6.92578H7.64258ZM9.46094 6.0166C9.46094 5.26009 9.29004 4.55827 8.94824 3.91113C8.60645 3.25944 8.12337 2.73991 7.49902 2.35254C6.87467 1.96061 6.19108 1.76465 5.44824 1.76465C4.72363 1.76465 4.04915 1.9515 3.4248 2.3252C2.80501 2.69889 2.31738 3.21387 1.96191 3.87012C1.60645 4.52637 1.42871 5.24186 1.42871 6.0166C1.42871 6.79134 1.60417 7.50684 1.95508 8.16309C2.31055 8.81934 2.79818 9.33887 3.41797 9.72168C4.04232 10.0999 4.71908 10.2891 5.44824 10.2891C6.17741 10.2891 6.85417 10.0954 7.47852 9.70801C8.10742 9.32064 8.59505 8.79883 8.94141 8.14258C9.28776 7.48633 9.46094 6.77767 9.46094 6.0166ZM0.594727 6.0166C0.594727 5.09603 0.806641 4.24154 1.23047 3.45312C1.65885 2.66471 2.24902 2.04492 3.00098 1.59375C3.75749 1.13802 4.57324 0.910156 5.44824 0.910156C6.32324 0.910156 7.13672 1.13802 7.88867 1.59375C8.64062 2.04492 9.22852 2.66471 9.65234 3.45312C10.0807 4.24154 10.2949 5.09603 10.2949 6.0166C10.2949 6.93717 10.0807 7.79167 9.65234 8.58008C9.22852 9.36849 8.6429 9.99284 7.89551 10.4531C7.14811 10.9089 6.33236 11.1367 5.44824 11.1367C4.56868 11.1367 3.75293 10.9089 3.00098 10.4531C2.25358 9.9974 1.66569 9.37533 1.2373 8.58691C0.808919 7.7985 0.594727 6.94173 0.594727 6.0166ZM18.4023 11H11.71V9.8584L15.0254 6.24219C15.5039 5.70898 15.8434 5.26465 16.0439 4.90918C16.249 4.54915 16.3516 4.18913 16.3516 3.8291C16.3516 3.35514 16.2171 2.97233 15.9482 2.68066C15.6839 2.389 15.3262 2.24316 14.875 2.24316C14.3372 2.24316 13.9202 2.40723 13.624 2.73535C13.3278 3.06348 13.1797 3.51237 13.1797 4.08203H11.5186C11.5186 3.47591 11.6553 2.93132 11.9287 2.44824C12.2067 1.96061 12.6009 1.58236 13.1113 1.31348C13.6263 1.0446 14.2188 0.910156 14.8887 0.910156C15.8548 0.910156 16.6159 1.15397 17.1719 1.6416C17.7324 2.12467 18.0127 2.7946 18.0127 3.65137C18.0127 4.14811 17.8714 4.66992 17.5889 5.2168C17.3109 5.75911 16.8529 6.37663 16.2148 7.06934L13.7812 9.67383H18.4023V11ZM26.1543 6.80957C26.1543 8.24056 25.8854 9.32064 25.3477 10.0498C24.8145 10.7744 24.001 11.1367 22.9072 11.1367C21.8317 11.1367 21.0205 10.7835 20.4736 10.0771C19.9313 9.36621 19.6533 8.31576 19.6396 6.92578V5.20312C19.6396 3.77214 19.9062 2.69889 20.4395 1.9834C20.9772 1.2679 21.7952 0.910156 22.8936 0.910156C23.9827 0.910156 24.7939 1.25879 25.3271 1.95605C25.8649 2.65332 26.1406 3.69694 26.1543 5.08691V6.80957ZM24.4932 4.9502C24.4932 4.01595 24.3656 3.33236 24.1104 2.89941C23.8551 2.46191 23.4495 2.24316 22.8936 2.24316C22.3512 2.24316 21.9525 2.45052 21.6973 2.86523C21.4421 3.27539 21.3076 3.91797 21.2939 4.79297V7.04883C21.2939 7.97852 21.4238 8.67122 21.6836 9.12695C21.9434 9.58268 22.3512 9.81055 22.9072 9.81055C23.4404 9.81055 23.8346 9.60091 24.0898 9.18164C24.3451 8.75781 24.4795 8.09701 24.4932 7.19922V4.9502ZM34.3164 11H27.624V9.8584L30.9395 6.24219C31.418 5.70898 31.7575 5.26465 31.958 4.90918C32.1631 4.54915 32.2656 4.18913 32.2656 3.8291C32.2656 3.35514 32.1312 2.97233 31.8623 2.68066C31.598 2.389 31.2402 2.24316 30.7891 2.24316C30.2513 2.24316 29.8343 2.40723 29.5381 2.73535C29.2419 3.06348 29.0938 3.51237 29.0938 4.08203H27.4326C27.4326 3.47591 27.5693 2.93132 27.8428 2.44824C28.1208 1.96061 28.515 1.58236 29.0254 1.31348C29.5404 1.0446 30.1328 0.910156 30.8027 0.910156C31.7689 0.910156 32.5299 1.15397 33.0859 1.6416C33.6465 2.12467 33.9268 2.7946 33.9268 3.65137C33.9268 4.14811 33.7855 4.66992 33.5029 5.2168C33.2249 5.75911 32.7669 6.37663 32.1289 7.06934L29.6953 9.67383H34.3164V11ZM42.0684 6.80957C42.0684 8.24056 41.7995 9.32064 41.2617 10.0498C40.7285 10.7744 39.915 11.1367 38.8213 11.1367C37.7458 11.1367 36.9346 10.7835 36.3877 10.0771C35.8454 9.36621 35.5674 8.31576 35.5537 6.92578V5.20312C35.5537 3.77214 35.8203 2.69889 36.3535 1.9834C36.8913 1.2679 37.7093 0.910156 38.8076 0.910156C39.8968 0.910156 40.708 1.25879 41.2412 1.95605C41.779 2.65332 42.0547 3.69694 42.0684 5.08691V6.80957ZM40.4072 4.9502C40.4072 4.01595 40.2796 3.33236 40.0244 2.89941C39.7692 2.46191 39.3636 2.24316 38.8076 2.24316C38.2653 2.24316 37.8665 2.45052 37.6113 2.86523C37.3561 3.27539 37.2217 3.91797 37.208 4.79297V7.04883C37.208 7.97852 37.3379 8.67122 37.5977 9.12695C37.8574 9.58268 38.2653 9.81055 38.8213 9.81055C39.3545 9.81055 39.7487 9.60091 40.0039 9.18164C40.2591 8.75781 40.3936 8.09701 40.4072 7.19922V4.9502ZM47.291 11V1.04688H50.2305C51.11 1.04688 51.8893 1.24284 52.5684 1.63477C53.252 2.02669 53.7806 2.58268 54.1543 3.30273C54.528 4.02279 54.7148 4.84766 54.7148 5.77734V6.27637C54.7148 7.21973 54.5257 8.04915 54.1475 8.76465C53.7738 9.48014 53.2383 10.0316 52.541 10.4189C51.8483 10.8063 51.0531 11 50.1553 11H47.291ZM49.0205 2.44141V9.61914H50.1484C51.0553 9.61914 51.7503 9.33659 52.2334 8.77148C52.721 8.20182 52.9694 7.38607 52.9785 6.32422V5.77051C52.9785 4.69043 52.7438 3.86556 52.2744 3.2959C51.805 2.72624 51.1237 2.44141 50.2305 2.44141H49.0205ZM60.6963 11C60.6234 10.8587 60.5596 10.6286 60.5049 10.3096C59.9762 10.861 59.3291 11.1367 58.5635 11.1367C57.8206 11.1367 57.2145 10.9248 56.7451 10.501C56.2757 10.0771 56.041 9.55306 56.041 8.92871C56.041 8.1403 56.3327 7.53646 56.916 7.11719C57.5039 6.69336 58.3424 6.48145 59.4316 6.48145H60.4502V5.99609C60.4502 5.61328 60.3431 5.30794 60.1289 5.08008C59.9147 4.84766 59.5889 4.73145 59.1514 4.73145C58.7731 4.73145 58.4632 4.82715 58.2217 5.01855C57.9801 5.2054 57.8594 5.44466 57.8594 5.73633H56.1982C56.1982 5.33073 56.3327 4.95247 56.6016 4.60156C56.8704 4.24609 57.235 3.9681 57.6953 3.76758C58.1602 3.56706 58.6774 3.4668 59.2471 3.4668C60.113 3.4668 60.8034 3.68555 61.3184 4.12305C61.8333 4.55599 62.0977 5.16667 62.1113 5.95508V9.29102C62.1113 9.95638 62.2048 10.4873 62.3916 10.8838V11H60.6963ZM58.8711 9.80371C59.1992 9.80371 59.5068 9.72396 59.7939 9.56445C60.0856 9.40495 60.3044 9.19076 60.4502 8.92188V7.52734H59.5547C58.9395 7.52734 58.4769 7.63444 58.167 7.84863C57.8571 8.06283 57.7021 8.36589 57.7021 8.75781C57.7021 9.07682 57.807 9.33203 58.0166 9.52344C58.2308 9.71029 58.5156 9.80371 58.8711 9.80371ZM67.7236 5.12109C67.5049 5.08464 67.2793 5.06641 67.0469 5.06641C66.2858 5.06641 65.7731 5.35807 65.5088 5.94141V11H63.8477V3.60352H65.4336L65.4746 4.43066C65.8757 3.78809 66.4316 3.4668 67.1426 3.4668C67.3796 3.4668 67.5755 3.4987 67.7305 3.5625L67.7236 5.12109ZM73.2539 10.2754C72.7663 10.8496 72.0736 11.1367 71.1758 11.1367C70.3737 11.1367 69.7653 10.902 69.3506 10.4326C68.9404 9.96322 68.7354 9.28418 68.7354 8.39551V3.60352H70.3965V8.375C70.3965 9.3138 70.7861 9.7832 71.5654 9.7832C72.3721 9.7832 72.9167 9.49382 73.1992 8.91504V3.60352H74.8604V11H73.2949L73.2539 10.2754ZM80.6982 8.99023C80.6982 8.69401 80.5752 8.46842 80.3291 8.31348C80.0876 8.15853 79.6842 8.02181 79.1191 7.90332C78.554 7.78483 78.0824 7.63444 77.7041 7.45215C76.8747 7.05111 76.46 6.47005 76.46 5.70898C76.46 5.07096 76.7288 4.53776 77.2666 4.10938C77.8044 3.68099 78.488 3.4668 79.3174 3.4668C80.2015 3.4668 80.9147 3.68555 81.457 4.12305C82.0039 4.56055 82.2773 5.12793 82.2773 5.8252H80.6162C80.6162 5.50618 80.4977 5.24186 80.2607 5.03223C80.0238 4.81803 79.7093 4.71094 79.3174 4.71094C78.9528 4.71094 78.6543 4.79525 78.4219 4.96387C78.194 5.13249 78.0801 5.35807 78.0801 5.64062C78.0801 5.89583 78.1872 6.09408 78.4014 6.23535C78.6156 6.37663 79.0485 6.52018 79.7002 6.66602C80.3519 6.80729 80.8623 6.97819 81.2314 7.17871C81.6051 7.37467 81.8809 7.61165 82.0586 7.88965C82.2409 8.16764 82.332 8.50488 82.332 8.90137C82.332 9.56673 82.0563 10.1068 81.5049 10.5215C80.9535 10.9316 80.2311 11.1367 79.3379 11.1367C78.7318 11.1367 78.1917 11.0273 77.7178 10.8086C77.2438 10.5898 76.8747 10.2891 76.6104 9.90625C76.346 9.52344 76.2139 9.111 76.2139 8.66895H77.8271C77.8499 9.06087 77.998 9.36393 78.2715 9.57812C78.5449 9.78776 78.9072 9.89258 79.3584 9.89258C79.7959 9.89258 80.1286 9.81055 80.3564 9.64648C80.5843 9.47786 80.6982 9.25911 80.6982 8.99023ZM87.9307 8.99023C87.9307 8.69401 87.8076 8.46842 87.5615 8.31348C87.32 8.15853 86.9167 8.02181 86.3516 7.90332C85.7865 7.78483 85.3148 7.63444 84.9365 7.45215C84.1071 7.05111 83.6924 6.47005 83.6924 5.70898C83.6924 5.07096 83.9613 4.53776 84.499 4.10938C85.0368 3.68099 85.7204 3.4668 86.5498 3.4668C87.4339 3.4668 88.1471 3.68555 88.6895 4.12305C89.2363 4.56055 89.5098 5.12793 89.5098 5.8252H87.8486C87.8486 5.50618 87.7301 5.24186 87.4932 5.03223C87.2562 4.81803 86.9417 4.71094 86.5498 4.71094C86.1852 4.71094 85.8867 4.79525 85.6543 4.96387C85.4264 5.13249 85.3125 5.35807 85.3125 5.64062C85.3125 5.89583 85.4196 6.09408 85.6338 6.23535C85.848 6.37663 86.2809 6.52018 86.9326 6.66602C87.5843 6.80729 88.0947 6.97819 88.4639 7.17871C88.8376 7.37467 89.1133 7.61165 89.291 7.88965C89.4733 8.16764 89.5645 8.50488 89.5645 8.90137C89.5645 9.56673 89.2887 10.1068 88.7373 10.5215C88.1859 10.9316 87.4635 11.1367 86.5703 11.1367C85.9642 11.1367 85.4242 11.0273 84.9502 10.8086C84.4762 10.5898 84.1071 10.2891 83.8428 9.90625C83.5785 9.52344 83.4463 9.111 83.4463 8.66895H85.0596C85.0824 9.06087 85.2305 9.36393 85.5039 9.57812C85.7773 9.78776 86.1396 9.89258 86.5908 9.89258C87.0283 9.89258 87.361 9.81055 87.5889 9.64648C87.8167 9.47786 87.9307 9.25911 87.9307 8.99023ZM95.4365 11C95.3636 10.8587 95.2998 10.6286 95.2451 10.3096C94.7165 10.861 94.0693 11.1367 93.3037 11.1367C92.5609 11.1367 91.9548 10.9248 91.4854 10.501C91.016 10.0771 90.7812 9.55306 90.7812 8.92871C90.7812 8.1403 91.0729 7.53646 91.6562 7.11719C92.2441 6.69336 93.0827 6.48145 94.1719 6.48145H95.1904V5.99609C95.1904 5.61328 95.0833 5.30794 94.8691 5.08008C94.6549 4.84766 94.3291 4.73145 93.8916 4.73145C93.5133 4.73145 93.2035 4.82715 92.9619 5.01855C92.7204 5.2054 92.5996 5.44466 92.5996 5.73633H90.9385C90.9385 5.33073 91.0729 4.95247 91.3418 4.60156C91.6107 4.24609 91.9753 3.9681 92.4355 3.76758C92.9004 3.56706 93.4176 3.4668 93.9873 3.4668C94.8532 3.4668 95.5436 3.68555 96.0586 4.12305C96.5736 4.55599 96.8379 5.16667 96.8516 5.95508V9.29102C96.8516 9.95638 96.945 10.4873 97.1318 10.8838V11H95.4365ZM93.6113 9.80371C93.9395 9.80371 94.2471 9.72396 94.5342 9.56445C94.8258 9.40495 95.0446 9.19076 95.1904 8.92188V7.52734H94.2949C93.6797 7.52734 93.2171 7.63444 92.9072 7.84863C92.5973 8.06283 92.4424 8.36589 92.4424 8.75781C92.4424 9.07682 92.5472 9.33203 92.7568 9.52344C92.971 9.71029 93.2559 9.80371 93.6113 9.80371ZM100.358 11H98.6973V0.5H100.358V11ZM106.593 11C106.52 10.8587 106.456 10.6286 106.401 10.3096C105.873 10.861 105.226 11.1367 104.46 11.1367C103.717 11.1367 103.111 10.9248 102.642 10.501C102.172 10.0771 101.938 9.55306 101.938 8.92871C101.938 8.1403 102.229 7.53646 102.812 7.11719C103.4 6.69336 104.239 6.48145 105.328 6.48145H106.347V5.99609C106.347 5.61328 106.24 5.30794 106.025 5.08008C105.811 4.84766 105.485 4.73145 105.048 4.73145C104.67 4.73145 104.36 4.82715 104.118 5.01855C103.877 5.2054 103.756 5.44466 103.756 5.73633H102.095C102.095 5.33073 102.229 4.95247 102.498 4.60156C102.767 4.24609 103.132 3.9681 103.592 3.76758C104.057 3.56706 104.574 3.4668 105.144 3.4668C106.009 3.4668 106.7 3.68555 107.215 4.12305C107.73 4.55599 107.994 5.16667 108.008 5.95508V9.29102C108.008 9.95638 108.101 10.4873 108.288 10.8838V11H106.593ZM104.768 9.80371C105.096 9.80371 105.403 9.72396 105.69 9.56445C105.982 9.40495 106.201 9.19076 106.347 8.92188V7.52734H105.451C104.836 7.52734 104.373 7.63444 104.063 7.84863C103.754 8.06283 103.599 8.36589 103.599 8.75781C103.599 9.07682 103.703 9.33203 103.913 9.52344C104.127 9.71029 104.412 9.80371 104.768 9.80371ZM111.31 3.60352L111.357 4.37598C111.877 3.76986 112.588 3.4668 113.49 3.4668C114.479 3.4668 115.156 3.84505 115.521 4.60156C116.058 3.84505 116.815 3.4668 117.79 3.4668C118.606 3.4668 119.212 3.69238 119.608 4.14355C120.009 4.59473 120.215 5.26009 120.224 6.13965V11H118.562V6.1875C118.562 5.7181 118.46 5.37402 118.255 5.15527C118.05 4.93652 117.71 4.82715 117.236 4.82715C116.858 4.82715 116.548 4.92969 116.307 5.13477C116.07 5.33529 115.903 5.59961 115.808 5.92773L115.814 11H114.153V6.13281C114.131 5.26237 113.686 4.82715 112.82 4.82715C112.155 4.82715 111.683 5.09831 111.405 5.64062V11H109.744V3.60352H111.31Z" fill="#939EA4"/>
</svg>
