<svg width="20" height="20" viewBox="0 0 20 20" fill="none" xmlns="http://www.w3.org/2000/svg">
<path fill-rule="evenodd" clip-rule="evenodd" d="M9.99994 2.21175C12.5365 2.21175 12.837 2.22144 13.8388 2.26714C14.7651 2.30942 15.268 2.46414 15.6028 2.59424C16.0154 2.74654 16.3887 2.98937 16.6951 3.30489C17.0106 3.61133 17.2535 3.98458 17.4058 4.39721C17.5359 4.73196 17.6906 5.23498 17.7329 6.16122C17.7786 7.163 17.7883 7.46343 17.7883 10.0001C17.7883 12.5368 17.7786 12.8372 17.7329 13.839C17.6906 14.7653 17.5358 15.2683 17.4058 15.6031C17.2477 16.0128 17.0057 16.3849 16.6951 16.6954C16.3846 17.0059 16.0125 17.248 15.6028 17.406C15.2681 17.5361 14.7651 17.6909 13.8388 17.7331C12.8372 17.7788 12.5368 17.7885 9.99994 17.7885C7.46308 17.7885 7.16276 17.7788 6.16106 17.7331C5.23483 17.6908 4.73185 17.5361 4.39707 17.406C3.98444 17.2537 3.61119 17.0109 3.30476 16.6954C2.98924 16.3889 2.74641 16.0157 2.59411 15.6031C2.46401 15.2683 2.30925 14.7653 2.26702 13.839C2.22131 12.8373 2.21162 12.5368 2.21162 10.0001C2.21162 7.46343 2.22131 7.16307 2.26702 6.16122C2.30929 5.23498 2.46401 4.732 2.59411 4.39721C2.74642 3.98456 2.98928 3.61129 3.30483 3.30486C3.61127 2.98933 3.98452 2.7465 4.39714 2.5942C4.73189 2.4641 5.23491 2.30934 6.16114 2.26711C7.16291 2.2214 7.46334 2.21171 10 2.21171L9.99994 2.21175ZM9.99994 0.5C7.41997 0.5 7.09634 0.510936 6.08323 0.557169C5.07204 0.603326 4.38149 0.763897 3.77723 0.998757C3.14334 1.2373 2.56912 1.61124 2.09461 2.09451C1.61124 2.569 1.23719 3.14322 0.998564 3.77714C0.763895 4.38145 0.603325 5.072 0.557357 6.0832C0.510936 7.09633 0.5 7.41996 0.5 10C0.5 12.5801 0.510936 12.9037 0.557357 13.9168C0.603514 14.928 0.764083 15.6186 0.998941 16.2229C1.23748 16.8567 1.61142 17.431 2.09468 17.9055C2.5692 18.3888 3.14342 18.7627 3.7773 19.0012C4.3816 19.2361 5.07215 19.3967 6.08331 19.4428C7.09657 19.4891 7.42009 19.5 10.0001 19.5C12.5801 19.5 12.9038 19.4891 13.9169 19.4428C14.9281 19.3967 15.6186 19.2361 16.2229 19.0012C16.854 18.7572 17.4271 18.3839 17.9055 17.9055C18.384 17.4271 18.7572 16.8539 19.0012 16.2229C19.2361 15.6186 19.3967 14.928 19.4428 13.9168C19.4891 12.9036 19.5 12.58 19.5 10C19.5 7.41999 19.4891 7.09633 19.4428 6.0832C19.3967 5.072 19.2361 4.38145 19.0012 3.77718C18.7627 3.14329 18.3888 2.56906 17.9055 2.09454C17.431 1.61118 16.8567 1.23716 16.2228 0.998568C15.6185 0.763897 14.9279 0.603326 13.9167 0.557357C12.9036 0.510936 12.58 0.5 9.99994 0.5ZM9.99988 5.12157C9.03503 5.12157 8.09185 5.40769 7.28961 5.94373C6.48737 6.47978 5.8621 7.24168 5.49287 8.13309C5.12363 9.0245 5.02703 10.0054 5.21526 10.9517C5.40349 11.898 5.86811 12.7673 6.55036 13.4495C7.23261 14.1318 8.10185 14.5964 9.04816 14.7846C9.99447 14.9729 10.9753 14.8763 11.8667 14.507C12.7581 14.1378 13.52 13.5125 14.0561 12.7103C14.5921 11.908 14.8782 10.9648 14.8782 9.99997C14.8782 8.70614 14.3643 7.4653 13.4494 6.55042C12.5345 5.63555 11.2937 5.12157 9.99988 5.12157ZM9.99988 13.1666C9.37358 13.1666 8.76135 12.9809 8.24061 12.6329C7.71986 12.285 7.314 11.7904 7.07433 11.2118C6.83466 10.6331 6.77195 9.99643 6.89414 9.38216C7.01633 8.7679 7.31793 8.20366 7.76079 7.7608C8.20365 7.31794 8.76789 7.01635 9.38215 6.89416C9.99642 6.77198 10.6331 6.83469 11.2117 7.07437C11.7904 7.31405 12.2849 7.71993 12.6329 8.24068C12.9808 8.76143 13.1665 9.37367 13.1665 9.99997C13.1665 10.8398 12.8329 11.6453 12.239 12.2391C11.6452 12.833 10.8397 13.1666 9.99988 13.1666ZM16.211 4.92891C16.211 5.55851 15.7007 6.0689 15.0711 6.0689C14.4415 6.0689 13.9311 5.55851 13.9311 4.92891C13.9311 4.29932 14.4415 3.78893 15.0711 3.78893C15.7007 3.78893 16.211 4.29932 16.211 4.92891Z" fill="url(#paint0_radial)"/>
<defs>
<radialGradient id="paint0_radial" cx="0" cy="0" r="1" gradientUnits="userSpaceOnUse" gradientTransform="translate(6.675 22.2312) rotate(-70.5462) scale(27.4549 27.4101)">
<stop stop-color="#FFD87B"/>
<stop offset="0.246305" stop-color="#F3A85C"/>
<stop offset="0.37931" stop-color="#F16449"/>
<stop offset="0.388642" stop-color="#F16449"/>
<stop offset="0.699507" stop-color="#C53F8B"/>
<stop offset="0.707834" stop-color="#C53F8B"/>
<stop offset="0.985222" stop-color="#6472B5"/>
<stop offset="1" stop-color="#6472B5"/>
</radialGradient>
</defs>
</svg>
