<svg width="293" height="990" viewBox="0 0 293 990" fill="none" xmlns="http://www.w3.org/2000/svg">
<path d="M24.3965 989V970.516H30.3506C31.984 970.516 33.4525 970.888 34.7559 971.633C36.0592 972.369 37.0749 973.414 37.8027 974.769C38.5391 976.114 38.9115 977.625 38.9199 979.301V980.151C38.9199 981.844 38.5602 983.363 37.8408 984.709C37.1299 986.046 36.1227 987.096 34.8193 987.857C33.5244 988.611 32.0771 988.992 30.4775 989H24.3965ZM28.8525 973.956V985.572H30.4014C31.6794 985.572 32.6611 985.119 33.3467 984.214C34.0322 983.3 34.375 981.946 34.375 980.151V979.352C34.375 977.566 34.0322 976.22 33.3467 975.314C32.6611 974.409 31.6624 973.956 30.3506 973.956H28.8525ZM48.7461 989C48.5938 988.721 48.4583 988.31 48.3398 987.769C47.5527 988.759 46.4525 989.254 45.0391 989.254C43.7441 989.254 42.6439 988.865 41.7383 988.086C40.8327 987.299 40.3799 986.313 40.3799 985.128C40.3799 983.638 40.93 982.513 42.0303 981.751C43.1305 980.989 44.7301 980.608 46.8291 980.608H48.1494V979.885C48.1494 978.624 47.6035 977.993 46.5117 977.993C45.4961 977.993 44.9883 978.493 44.9883 979.491H40.71C40.71 978.162 41.2728 977.083 42.3984 976.254C43.5326 975.424 44.9756 975.01 46.7275 975.01C48.4795 975.01 49.8633 975.437 50.8789 976.292C51.8945 977.147 52.415 978.319 52.4404 979.809V985.89C52.4574 987.151 52.652 988.116 53.0244 988.784V989H48.7461ZM46.0674 986.207C46.6006 986.207 47.0407 986.093 47.3877 985.864C47.7432 985.636 47.9971 985.378 48.1494 985.09V982.894H46.9053C45.4157 982.894 44.6709 983.562 44.6709 984.899C44.6709 985.289 44.8021 985.606 45.0645 985.852C45.3268 986.089 45.6611 986.207 46.0674 986.207ZM63.1299 979.136L61.7207 979.034C60.375 979.034 59.5117 979.457 59.1309 980.304V989H54.8525V975.264H58.8643L59.0039 977.028C59.7233 975.683 60.7262 975.01 62.0127 975.01C62.4697 975.01 62.8675 975.061 63.2061 975.162L63.1299 979.136ZM72.8545 987.515C71.9489 988.674 70.7259 989.254 69.1855 989.254C67.679 989.254 66.5365 988.818 65.7578 987.946C64.9876 987.066 64.6025 985.805 64.6025 984.163V975.264H68.8809V984.188C68.8809 985.365 69.4521 985.953 70.5947 985.953C71.5765 985.953 72.2747 985.602 72.6895 984.899V975.264H76.9932V989H72.9814L72.8545 987.515ZM86.54 985.141C86.54 984.777 86.3496 984.485 85.9688 984.265C85.5879 984.045 84.8643 983.816 83.7979 983.579C82.7314 983.342 81.8512 983.033 81.1572 982.652C80.4632 982.263 79.9342 981.793 79.5703 981.243C79.2064 980.693 79.0244 980.062 79.0244 979.352C79.0244 978.09 79.5449 977.054 80.5859 976.241C81.627 975.42 82.9896 975.01 84.6738 975.01C86.485 975.01 87.9408 975.42 89.041 976.241C90.1413 977.062 90.6914 978.141 90.6914 979.479H86.4004C86.4004 978.378 85.8206 977.828 84.6611 977.828C84.2126 977.828 83.8359 977.955 83.5312 978.209C83.2266 978.454 83.0742 978.763 83.0742 979.136C83.0742 979.517 83.2604 979.826 83.6328 980.062C84.0052 980.299 84.5977 980.494 85.4102 980.646C86.2311 980.799 86.9505 980.981 87.5684 981.192C89.6335 981.903 90.666 983.177 90.666 985.014C90.666 986.266 90.1074 987.286 88.9902 988.073C87.8815 988.86 86.4427 989.254 84.6738 989.254C83.4974 989.254 82.4479 989.042 81.5254 988.619C80.6029 988.196 79.8835 987.62 79.3672 986.893C78.8509 986.165 78.5928 985.399 78.5928 984.595H82.5918C82.6087 985.229 82.8203 985.695 83.2266 985.991C83.6328 986.279 84.1533 986.423 84.7881 986.423C85.3721 986.423 85.8079 986.304 86.0957 986.067C86.3919 985.83 86.54 985.521 86.54 985.141ZM99.8701 985.141C99.8701 984.777 99.6797 984.485 99.2988 984.265C98.918 984.045 98.1943 983.816 97.1279 983.579C96.0615 983.342 95.1813 983.033 94.4873 982.652C93.7933 982.263 93.2643 981.793 92.9004 981.243C92.5365 980.693 92.3545 980.062 92.3545 979.352C92.3545 978.09 92.875 977.054 93.916 976.241C94.957 975.42 96.3197 975.01 98.0039 975.01C99.8151 975.01 101.271 975.42 102.371 976.241C103.471 977.062 104.021 978.141 104.021 979.479H99.7305C99.7305 978.378 99.1507 977.828 97.9912 977.828C97.5426 977.828 97.166 977.955 96.8613 978.209C96.5566 978.454 96.4043 978.763 96.4043 979.136C96.4043 979.517 96.5905 979.826 96.9629 980.062C97.3353 980.299 97.9277 980.494 98.7402 980.646C99.5612 980.799 100.281 980.981 100.898 981.192C102.964 981.903 103.996 983.177 103.996 985.014C103.996 986.266 103.438 987.286 102.32 988.073C101.212 988.86 99.7728 989.254 98.0039 989.254C96.8275 989.254 95.778 989.042 94.8555 988.619C93.9329 988.196 93.2135 987.62 92.6973 986.893C92.181 986.165 91.9229 985.399 91.9229 984.595H95.9219C95.9388 985.229 96.1504 985.695 96.5566 985.991C96.9629 986.279 97.4834 986.423 98.1182 986.423C98.7021 986.423 99.138 986.304 99.4258 986.067C99.722 985.83 99.8701 985.521 99.8701 985.141ZM113.746 989C113.594 988.721 113.458 988.31 113.34 987.769C112.553 988.759 111.452 989.254 110.039 989.254C108.744 989.254 107.644 988.865 106.738 988.086C105.833 987.299 105.38 986.313 105.38 985.128C105.38 983.638 105.93 982.513 107.03 981.751C108.131 980.989 109.73 980.608 111.829 980.608H113.149V979.885C113.149 978.624 112.604 977.993 111.512 977.993C110.496 977.993 109.988 978.493 109.988 979.491H105.71C105.71 978.162 106.273 977.083 107.398 976.254C108.533 975.424 109.976 975.01 111.728 975.01C113.479 975.01 114.863 975.437 115.879 976.292C116.895 977.147 117.415 978.319 117.44 979.809V985.89C117.457 987.151 117.652 988.116 118.024 988.784V989H113.746ZM111.067 986.207C111.601 986.207 112.041 986.093 112.388 985.864C112.743 985.636 112.997 985.378 113.149 985.09V982.894H111.905C110.416 982.894 109.671 983.562 109.671 984.899C109.671 985.289 109.802 985.606 110.064 985.852C110.327 986.089 110.661 986.207 111.067 986.207ZM124.334 989H120.043V969.5H124.334V989ZM134.719 989C134.566 988.721 134.431 988.31 134.312 987.769C133.525 988.759 132.425 989.254 131.012 989.254C129.717 989.254 128.617 988.865 127.711 988.086C126.805 987.299 126.353 986.313 126.353 985.128C126.353 983.638 126.903 982.513 128.003 981.751C129.103 980.989 130.703 980.608 132.802 980.608H134.122V979.885C134.122 978.624 133.576 977.993 132.484 977.993C131.469 977.993 130.961 978.493 130.961 979.491H126.683C126.683 978.162 127.245 977.083 128.371 976.254C129.505 975.424 130.948 975.01 132.7 975.01C134.452 975.01 135.836 975.437 136.852 976.292C137.867 977.147 138.388 978.319 138.413 979.809V985.89C138.43 987.151 138.625 988.116 138.997 988.784V989H134.719ZM132.04 986.207C132.573 986.207 133.013 986.093 133.36 985.864C133.716 985.636 133.97 985.378 134.122 985.09V982.894H132.878C131.388 982.894 130.644 983.562 130.644 984.899C130.644 985.289 130.775 985.606 131.037 985.852C131.299 986.089 131.634 986.207 132.04 986.207ZM144.837 975.264L144.977 976.876C145.95 975.632 147.257 975.01 148.899 975.01C150.634 975.01 151.807 975.7 152.416 977.079C153.347 975.7 154.693 975.01 156.453 975.01C159.238 975.01 160.668 976.694 160.744 980.062V989H156.453V980.329C156.453 979.627 156.335 979.115 156.098 978.793C155.861 978.471 155.429 978.311 154.803 978.311C153.956 978.311 153.326 978.687 152.911 979.44L152.924 979.618V989H148.633V980.354C148.633 979.635 148.519 979.115 148.29 978.793C148.062 978.471 147.626 978.311 146.982 978.311C146.161 978.311 145.535 978.687 145.104 979.44V989H140.825V975.264H144.837ZM176.144 982.119L174.315 984.125V989H169.859V970.516H174.315V978.666L175.864 976.317L179.851 970.516H185.36L179.114 978.691L185.36 989H180.079L176.144 982.119ZM192.609 989.254C190.502 989.254 188.797 988.628 187.493 987.375C186.19 986.114 185.538 984.476 185.538 982.462V982.106C185.538 980.701 185.796 979.462 186.312 978.387C186.837 977.312 187.599 976.482 188.598 975.898C189.596 975.306 190.781 975.01 192.152 975.01C194.082 975.01 195.605 975.611 196.723 976.812C197.84 978.006 198.398 979.673 198.398 981.814V983.478H189.893C190.045 984.248 190.379 984.853 190.896 985.293C191.412 985.733 192.08 985.953 192.901 985.953C194.256 985.953 195.313 985.479 196.075 984.531L198.03 986.842C197.497 987.578 196.74 988.166 195.758 988.606C194.785 989.038 193.735 989.254 192.609 989.254ZM192.127 978.311C190.874 978.311 190.13 979.14 189.893 980.799H194.209V980.469C194.226 979.783 194.052 979.254 193.688 978.882C193.325 978.501 192.804 978.311 192.127 978.311ZM208.313 987.515C207.408 988.674 206.185 989.254 204.645 989.254C203.138 989.254 201.995 988.818 201.217 987.946C200.447 987.066 200.062 985.805 200.062 984.163V975.264H204.34V984.188C204.34 985.365 204.911 985.953 206.054 985.953C207.035 985.953 207.734 985.602 208.148 984.899V975.264H212.452V989H208.44L208.313 987.515ZM220.615 985.953C221.216 985.953 221.682 985.792 222.012 985.471C222.342 985.141 222.503 984.684 222.494 984.1H226.506C226.506 985.606 225.964 986.842 224.881 987.807C223.806 988.771 222.418 989.254 220.717 989.254C218.719 989.254 217.145 988.628 215.994 987.375C214.843 986.122 214.268 984.387 214.268 982.17V981.992C214.268 980.604 214.521 979.381 215.029 978.323C215.546 977.257 216.286 976.44 217.251 975.873C218.216 975.298 219.358 975.01 220.679 975.01C222.465 975.01 223.882 975.505 224.932 976.495C225.981 977.485 226.506 978.827 226.506 980.52H222.494C222.494 979.809 222.321 979.263 221.974 978.882C221.627 978.501 221.161 978.311 220.577 978.311C219.468 978.311 218.821 979.017 218.635 980.431C218.576 980.879 218.546 981.497 218.546 982.284C218.546 983.664 218.711 984.62 219.041 985.153C219.371 985.687 219.896 985.953 220.615 985.953ZM232.498 976.736C233.412 975.585 234.58 975.01 236.002 975.01C237.517 975.01 238.66 975.458 239.43 976.355C240.2 977.253 240.593 978.577 240.61 980.329V989H236.319V980.431C236.319 979.703 236.171 979.17 235.875 978.831C235.579 978.484 235.075 978.311 234.364 978.311C233.484 978.311 232.862 978.59 232.498 979.148V989H228.22V969.5H232.498V976.736ZM247.504 989H243.213V975.264H247.504V989ZM242.959 971.722C242.959 971.112 243.179 970.613 243.619 970.224C244.059 969.834 244.631 969.64 245.333 969.64C246.035 969.64 246.607 969.834 247.047 970.224C247.487 970.613 247.707 971.112 247.707 971.722C247.707 972.331 247.487 972.83 247.047 973.22C246.607 973.609 246.035 973.804 245.333 973.804C244.631 973.804 244.059 973.609 243.619 973.22C243.179 972.83 242.959 972.331 242.959 971.722ZM255.667 983.884L254.461 985.09V989H250.183V969.487H254.461V979.847L254.893 979.275L258.117 975.264H263.246L258.435 980.913L263.563 989H258.663L255.667 983.884Z" fill="#37447E"/>
<path d="M24.8115 32.6706V14.1862H30.7656C32.3991 14.1862 33.8675 14.5586 35.1709 15.3034C36.4743 16.0397 37.4899 17.085 38.2178 18.4391C38.9541 19.7849 39.3265 21.2956 39.335 22.9714V23.822C39.335 25.5147 38.9753 27.0339 38.2559 28.3796C37.5449 29.7168 36.5378 30.7663 35.2344 31.528C33.9395 32.2813 32.4922 32.6621 30.8926 32.6706H24.8115ZM29.2676 17.6266V29.2429H30.8164C32.0944 29.2429 33.0762 28.7901 33.7617 27.8845C34.4473 26.9704 34.79 25.6162 34.79 23.822V23.0222C34.79 21.2363 34.4473 19.8906 33.7617 18.985C33.0762 18.0794 32.0775 17.6266 30.7656 17.6266H29.2676ZM49.1611 32.6706C49.0088 32.3913 48.8734 31.9808 48.7549 31.4391C47.9678 32.4294 46.8675 32.9245 45.4541 32.9245C44.1592 32.9245 43.0589 32.5352 42.1533 31.7565C41.2477 30.9694 40.7949 29.9834 40.7949 28.7985C40.7949 27.3089 41.3451 26.1833 42.4453 25.4216C43.5456 24.6599 45.1452 24.279 47.2441 24.279H48.5645V23.5554C48.5645 22.2943 48.0186 21.6638 46.9268 21.6638C45.9111 21.6638 45.4033 22.1631 45.4033 23.1618H41.125C41.125 21.833 41.6878 20.7539 42.8135 19.9245C43.9476 19.0951 45.3906 18.6804 47.1426 18.6804C48.8945 18.6804 50.2783 19.1078 51.2939 19.9626C52.3096 20.8174 52.8301 21.9896 52.8555 23.4792V29.5602C52.8724 30.8213 53.0671 31.7862 53.4395 32.4548V32.6706H49.1611ZM46.4824 29.8776C47.0156 29.8776 47.4557 29.7634 47.8027 29.5349C48.1582 29.3063 48.4121 29.0482 48.5645 28.7604V26.5641H47.3203C45.8307 26.5641 45.0859 27.2328 45.0859 28.57C45.0859 28.9593 45.2171 29.2767 45.4795 29.5222C45.7419 29.7591 46.0762 29.8776 46.4824 29.8776ZM63.5449 22.8063L62.1357 22.7048C60.79 22.7048 59.9268 23.128 59.5459 23.9743V32.6706H55.2676V18.9343H59.2793L59.4189 20.6989C60.1383 19.3532 61.1413 18.6804 62.4277 18.6804C62.8848 18.6804 63.2826 18.7311 63.6211 18.8327L63.5449 22.8063ZM73.2695 31.1852C72.3639 32.3447 71.141 32.9245 69.6006 32.9245C68.0941 32.9245 66.9515 32.4886 66.1729 31.6169C65.4027 30.7367 65.0176 29.4756 65.0176 27.8337V18.9343H69.2959V27.8591C69.2959 29.0355 69.8672 29.6237 71.0098 29.6237C71.9915 29.6237 72.6898 29.2725 73.1045 28.57V18.9343H77.4082V32.6706H73.3965L73.2695 31.1852ZM86.9551 28.8112C86.9551 28.4473 86.7646 28.1553 86.3838 27.9352C86.0029 27.7152 85.2793 27.4867 84.2129 27.2497C83.1465 27.0127 82.2663 26.7038 81.5723 26.3229C80.8783 25.9336 80.3493 25.4639 79.9854 24.9138C79.6214 24.3636 79.4395 23.7331 79.4395 23.0222C79.4395 21.7611 79.96 20.7243 81.001 19.9118C82.042 19.0908 83.4046 18.6804 85.0889 18.6804C86.9001 18.6804 88.3558 19.0908 89.4561 19.9118C90.5563 20.7328 91.1064 21.8119 91.1064 23.1491H86.8154C86.8154 22.0488 86.2357 21.4987 85.0762 21.4987C84.6276 21.4987 84.251 21.6257 83.9463 21.8796C83.6416 22.125 83.4893 22.4339 83.4893 22.8063C83.4893 23.1872 83.6755 23.4961 84.0479 23.7331C84.4202 23.9701 85.0127 24.1647 85.8252 24.3171C86.6462 24.4694 87.3656 24.6514 87.9834 24.863C90.0485 25.5739 91.0811 26.8477 91.0811 28.6843C91.0811 29.9369 90.5225 30.9567 89.4053 31.7438C88.2965 32.5309 86.8577 32.9245 85.0889 32.9245C83.9124 32.9245 82.863 32.7129 81.9404 32.2897C81.0179 31.8666 80.2985 31.291 79.7822 30.5632C79.266 29.8353 79.0078 29.0694 79.0078 28.2653H83.0068C83.0238 28.9001 83.2354 29.3656 83.6416 29.6618C84.0479 29.9496 84.5684 30.0934 85.2031 30.0934C85.7871 30.0934 86.223 29.975 86.5107 29.738C86.807 29.501 86.9551 29.1921 86.9551 28.8112ZM100.285 28.8112C100.285 28.4473 100.095 28.1553 99.7139 27.9352C99.333 27.7152 98.6094 27.4867 97.543 27.2497C96.4766 27.0127 95.5964 26.7038 94.9023 26.3229C94.2083 25.9336 93.6794 25.4639 93.3154 24.9138C92.9515 24.3636 92.7695 23.7331 92.7695 23.0222C92.7695 21.7611 93.29 20.7243 94.3311 19.9118C95.3721 19.0908 96.7347 18.6804 98.4189 18.6804C100.23 18.6804 101.686 19.0908 102.786 19.9118C103.886 20.7328 104.437 21.8119 104.437 23.1491H100.146C100.146 22.0488 99.5658 21.4987 98.4062 21.4987C97.9577 21.4987 97.5811 21.6257 97.2764 21.8796C96.9717 22.125 96.8193 22.4339 96.8193 22.8063C96.8193 23.1872 97.0055 23.4961 97.3779 23.7331C97.7503 23.9701 98.3428 24.1647 99.1553 24.3171C99.9762 24.4694 100.696 24.6514 101.313 24.863C103.379 25.5739 104.411 26.8477 104.411 28.6843C104.411 29.9369 103.853 30.9567 102.735 31.7438C101.627 32.5309 100.188 32.9245 98.4189 32.9245C97.2425 32.9245 96.193 32.7129 95.2705 32.2897C94.348 31.8666 93.6286 31.291 93.1123 30.5632C92.596 29.8353 92.3379 29.0694 92.3379 28.2653H96.3369C96.3538 28.9001 96.5654 29.3656 96.9717 29.6618C97.3779 29.9496 97.8984 30.0934 98.5332 30.0934C99.1172 30.0934 99.5531 29.975 99.8408 29.738C100.137 29.501 100.285 29.1921 100.285 28.8112ZM114.161 32.6706C114.009 32.3913 113.873 31.9808 113.755 31.4391C112.968 32.4294 111.868 32.9245 110.454 32.9245C109.159 32.9245 108.059 32.5352 107.153 31.7565C106.248 30.9694 105.795 29.9834 105.795 28.7985C105.795 27.3089 106.345 26.1833 107.445 25.4216C108.546 24.6599 110.145 24.279 112.244 24.279H113.564V23.5554C113.564 22.2943 113.019 21.6638 111.927 21.6638C110.911 21.6638 110.403 22.1631 110.403 23.1618H106.125C106.125 21.833 106.688 20.7539 107.813 19.9245C108.948 19.0951 110.391 18.6804 112.143 18.6804C113.895 18.6804 115.278 19.1078 116.294 19.9626C117.31 20.8174 117.83 21.9896 117.855 23.4792V29.5602C117.872 30.8213 118.067 31.7862 118.439 32.4548V32.6706H114.161ZM111.482 29.8776C112.016 29.8776 112.456 29.7634 112.803 29.5349C113.158 29.3063 113.412 29.0482 113.564 28.7604V26.5641H112.32C110.831 26.5641 110.086 27.2328 110.086 28.57C110.086 28.9593 110.217 29.2767 110.479 29.5222C110.742 29.7591 111.076 29.8776 111.482 29.8776ZM124.749 32.6706H120.458V13.1706H124.749V32.6706ZM135.134 32.6706C134.981 32.3913 134.846 31.9808 134.728 31.4391C133.94 32.4294 132.84 32.9245 131.427 32.9245C130.132 32.9245 129.032 32.5352 128.126 31.7565C127.22 30.9694 126.768 29.9834 126.768 28.7985C126.768 27.3089 127.318 26.1833 128.418 25.4216C129.518 24.6599 131.118 24.279 133.217 24.279H134.537V23.5554C134.537 22.2943 133.991 21.6638 132.899 21.6638C131.884 21.6638 131.376 22.1631 131.376 23.1618H127.098C127.098 21.833 127.66 20.7539 128.786 19.9245C129.92 19.0951 131.363 18.6804 133.115 18.6804C134.867 18.6804 136.251 19.1078 137.267 19.9626C138.282 20.8174 138.803 21.9896 138.828 23.4792V29.5602C138.845 30.8213 139.04 31.7862 139.412 32.4548V32.6706H135.134ZM132.455 29.8776C132.988 29.8776 133.428 29.7634 133.775 29.5349C134.131 29.3063 134.385 29.0482 134.537 28.7604V26.5641H133.293C131.803 26.5641 131.059 27.2328 131.059 28.57C131.059 28.9593 131.19 29.2767 131.452 29.5222C131.715 29.7591 132.049 29.8776 132.455 29.8776ZM145.252 18.9343L145.392 20.5466C146.365 19.3024 147.673 18.6804 149.314 18.6804C151.049 18.6804 152.222 19.3701 152.831 20.7497C153.762 19.3701 155.108 18.6804 156.868 18.6804C159.653 18.6804 161.083 20.3646 161.159 23.7331V32.6706H156.868V23.9997C156.868 23.2972 156.75 22.7852 156.513 22.4636C156.276 22.1419 155.844 21.9811 155.218 21.9811C154.371 21.9811 153.741 22.3578 153.326 23.111L153.339 23.2888V32.6706H149.048V24.0251C149.048 23.3057 148.934 22.7852 148.705 22.4636C148.477 22.1419 148.041 21.9811 147.397 21.9811C146.576 21.9811 145.95 22.3578 145.519 23.111V32.6706H141.24V18.9343H145.252ZM176.559 25.7897L174.73 27.7956V32.6706H170.274V14.1862H174.73V22.3366L176.279 19.988L180.266 14.1862H185.775L179.529 22.362L185.775 32.6706H180.494L176.559 25.7897ZM193.024 32.9245C190.917 32.9245 189.212 32.2982 187.908 31.0456C186.605 29.7845 185.953 28.1468 185.953 26.1325V25.777C185.953 24.3721 186.211 23.1322 186.728 22.0573C187.252 20.9824 188.014 20.153 189.013 19.569C190.011 18.9766 191.196 18.6804 192.567 18.6804C194.497 18.6804 196.021 19.2813 197.138 20.4831C198.255 21.6765 198.813 23.3438 198.813 25.485V27.1481H190.308C190.46 27.9183 190.794 28.5235 191.311 28.9636C191.827 29.4037 192.495 29.6237 193.316 29.6237C194.671 29.6237 195.729 29.1498 196.49 28.2018L198.445 30.5124C197.912 31.2487 197.155 31.8369 196.173 32.277C195.2 32.7087 194.15 32.9245 193.024 32.9245ZM192.542 21.9811C191.289 21.9811 190.545 22.8106 190.308 24.4694H194.624V24.1393C194.641 23.4538 194.467 22.9248 194.104 22.5524C193.74 22.1716 193.219 21.9811 192.542 21.9811ZM208.729 31.1852C207.823 32.3447 206.6 32.9245 205.06 32.9245C203.553 32.9245 202.41 32.4886 201.632 31.6169C200.862 30.7367 200.477 29.4756 200.477 27.8337V18.9343H204.755V27.8591C204.755 29.0355 205.326 29.6237 206.469 29.6237C207.451 29.6237 208.149 29.2725 208.563 28.57V18.9343H212.867V32.6706H208.855L208.729 31.1852ZM221.03 29.6237C221.631 29.6237 222.097 29.4629 222.427 29.1413C222.757 28.8112 222.918 28.3542 222.909 27.7702H226.921C226.921 29.2767 226.379 30.5124 225.296 31.4772C224.221 32.4421 222.833 32.9245 221.132 32.9245C219.134 32.9245 217.56 32.2982 216.409 31.0456C215.258 29.793 214.683 28.058 214.683 25.8405V25.6628C214.683 24.2748 214.937 23.0518 215.444 21.9938C215.961 20.9274 216.701 20.1107 217.666 19.5436C218.631 18.9681 219.773 18.6804 221.094 18.6804C222.88 18.6804 224.297 19.1755 225.347 20.1657C226.396 21.1559 226.921 22.4974 226.921 24.1901H222.909C222.909 23.4792 222.736 22.9333 222.389 22.5524C222.042 22.1716 221.576 21.9811 220.992 21.9811C219.883 21.9811 219.236 22.6878 219.05 24.1013C218.991 24.5498 218.961 25.1677 218.961 25.9548C218.961 27.3343 219.126 28.2907 219.456 28.8239C219.786 29.3571 220.311 29.6237 221.03 29.6237ZM232.913 20.4069C233.827 19.2559 234.995 18.6804 236.417 18.6804C237.932 18.6804 239.075 19.1289 239.845 20.0261C240.615 20.9232 241.008 22.2477 241.025 23.9997V32.6706H236.734V24.1013C236.734 23.3734 236.586 22.8402 236.29 22.5016C235.994 22.1546 235.49 21.9811 234.779 21.9811C233.899 21.9811 233.277 22.2604 232.913 22.819V32.6706H228.635V13.1706H232.913V20.4069ZM247.919 32.6706H243.628V18.9343H247.919V32.6706ZM243.374 15.3923C243.374 14.7829 243.594 14.2835 244.034 13.8942C244.474 13.5049 245.046 13.3102 245.748 13.3102C246.451 13.3102 247.022 13.5049 247.462 13.8942C247.902 14.2835 248.122 14.7829 248.122 15.3923C248.122 16.0016 247.902 16.501 247.462 16.8903C247.022 17.2796 246.451 17.4743 245.748 17.4743C245.046 17.4743 244.474 17.2796 244.034 16.8903C243.594 16.501 243.374 16.0016 243.374 15.3923ZM256.082 27.5544L254.876 28.7604V32.6706H250.598V13.1579H254.876V23.5173L255.308 22.946L258.532 18.9343H263.661L258.85 24.5837L263.979 32.6706H259.078L256.082 27.5544Z" fill="#37447E"/>
</svg>
