<svg width="283" height="39" viewBox="0 0 283 39" fill="none" xmlns="http://www.w3.org/2000/svg">
<path d="M7.29688 1.5625L15.5 23.3594L23.6836 1.5625H30.0703V30H25.1484V20.625L25.6367 8.08594L17.2383 30H13.7031L5.32422 8.10547L5.8125 20.625V30H0.890625V1.5625H7.29688ZM49.0977 30C48.8893 29.5964 48.707 28.9388 48.5508 28.0273C47.0404 29.6029 45.1914 30.3906 43.0039 30.3906C40.8815 30.3906 39.1497 29.7852 37.8086 28.5742C36.4674 27.3633 35.7969 25.8659 35.7969 24.082C35.7969 21.8294 36.6302 20.1042 38.2969 18.9062C39.9766 17.6953 42.3724 17.0898 45.4844 17.0898H48.3945V15.7031C48.3945 14.6094 48.0885 13.737 47.4766 13.0859C46.8646 12.4219 45.9336 12.0898 44.6836 12.0898C43.6029 12.0898 42.7174 12.3633 42.0273 12.9102C41.3372 13.444 40.9922 14.1276 40.9922 14.9609H36.2461C36.2461 13.8021 36.6302 12.7214 37.3984 11.7188C38.1667 10.7031 39.2083 9.90885 40.5234 9.33594C41.8516 8.76302 43.3294 8.47656 44.957 8.47656C47.431 8.47656 49.4036 9.10156 50.875 10.3516C52.3464 11.5885 53.1016 13.3333 53.1406 15.5859V25.1172C53.1406 27.0182 53.4076 28.5352 53.9414 29.668V30H49.0977ZM43.8828 26.582C44.8203 26.582 45.6992 26.3542 46.5195 25.8984C47.3529 25.4427 47.9779 24.8307 48.3945 24.0625V20.0781H45.8359C44.0781 20.0781 42.7565 20.3841 41.8711 20.9961C40.9857 21.6081 40.543 22.474 40.543 23.5938C40.543 24.5052 40.8424 25.2344 41.4414 25.7812C42.0534 26.3151 42.8672 26.582 43.8828 26.582ZM70.957 24.2578C70.957 23.4115 70.6055 22.7669 69.9023 22.3242C69.2122 21.8815 68.0599 21.4909 66.4453 21.1523C64.8307 20.8138 63.4831 20.3841 62.4023 19.8633C60.0326 18.7174 58.8477 17.0573 58.8477 14.8828C58.8477 13.0599 59.6159 11.5365 61.1523 10.3125C62.6888 9.08854 64.6419 8.47656 67.0117 8.47656C69.5378 8.47656 71.5755 9.10156 73.125 10.3516C74.6875 11.6016 75.4688 13.2227 75.4688 15.2148H70.7227C70.7227 14.3034 70.3841 13.5482 69.707 12.9492C69.0299 12.3372 68.1315 12.0312 67.0117 12.0312C65.9701 12.0312 65.1172 12.2721 64.4531 12.7539C63.8021 13.2357 63.4766 13.8802 63.4766 14.6875C63.4766 15.4167 63.7826 15.9831 64.3945 16.3867C65.0065 16.7904 66.2435 17.2005 68.1055 17.6172C69.9674 18.0208 71.4258 18.5091 72.4805 19.082C73.5482 19.6419 74.3359 20.319 74.8438 21.1133C75.3646 21.9076 75.625 22.8711 75.625 24.0039C75.625 25.9049 74.8372 27.4479 73.2617 28.6328C71.6862 29.8047 69.6224 30.3906 67.0703 30.3906C65.3385 30.3906 63.7956 30.0781 62.4414 29.4531C61.0872 28.8281 60.0326 27.9688 59.2773 26.875C58.5221 25.7812 58.1445 24.6029 58.1445 23.3398H62.7539C62.819 24.4596 63.2422 25.3255 64.0234 25.9375C64.8047 26.5365 65.8398 26.8359 67.1289 26.8359C68.3789 26.8359 69.3294 26.6016 69.9805 26.1328C70.6315 25.651 70.957 25.026 70.957 24.2578ZM93.5781 27.9297C92.1849 29.5703 90.2057 30.3906 87.6406 30.3906C85.349 30.3906 83.6107 29.7201 82.4258 28.3789C81.2539 27.0378 80.668 25.0977 80.668 22.5586V8.86719H85.4141V22.5C85.4141 25.1823 86.5273 26.5234 88.7539 26.5234C91.0586 26.5234 92.6146 25.6966 93.4219 24.043V8.86719H98.168V30H93.6953L93.5781 27.9297ZM110.867 20.9375L108.758 23.1055V30H104.012V0H108.758V17.3047L110.242 15.4492L116.082 8.86719H121.785L113.934 17.6758L122.625 30H117.137L110.867 20.9375ZM152.184 22.6758C152.184 21.4258 151.741 20.4622 150.855 19.7852C149.983 19.1081 148.401 18.4245 146.109 17.7344C143.818 17.0443 141.995 16.276 140.641 15.4297C138.049 13.8021 136.754 11.6797 136.754 9.0625C136.754 6.77083 137.685 4.88281 139.547 3.39844C141.422 1.91406 143.85 1.17188 146.832 1.17188C148.811 1.17188 150.576 1.53646 152.125 2.26562C153.674 2.99479 154.892 4.03646 155.777 5.39062C156.663 6.73177 157.105 8.22266 157.105 9.86328H152.184C152.184 8.37891 151.715 7.22005 150.777 6.38672C149.853 5.54036 148.525 5.11719 146.793 5.11719C145.178 5.11719 143.922 5.46224 143.023 6.15234C142.138 6.84245 141.695 7.80599 141.695 9.04297C141.695 10.0846 142.177 10.957 143.141 11.6602C144.104 12.3503 145.693 13.0273 147.906 13.6914C150.12 14.3424 151.897 15.0911 153.238 15.9375C154.579 16.7708 155.562 17.7344 156.188 18.8281C156.812 19.9089 157.125 21.1784 157.125 22.6367C157.125 25.0065 156.214 26.8945 154.391 28.3008C152.581 29.694 150.12 30.3906 147.008 30.3906C144.951 30.3906 143.056 30.013 141.324 29.2578C139.605 28.4896 138.264 27.4349 137.301 26.0938C136.35 24.7526 135.875 23.1901 135.875 21.4062H140.816C140.816 23.0208 141.35 24.2708 142.418 25.1562C143.486 26.0417 145.016 26.4844 147.008 26.4844C148.727 26.4844 150.016 26.1393 150.875 25.4492C151.747 24.7461 152.184 23.8216 152.184 22.6758ZM171.309 30.3906C168.301 30.3906 165.859 29.4466 163.984 27.5586C162.122 25.6576 161.191 23.1315 161.191 19.9805V19.3945C161.191 17.2852 161.595 15.4036 162.402 13.75C163.223 12.0833 164.368 10.7878 165.84 9.86328C167.311 8.9388 168.952 8.47656 170.762 8.47656C173.639 8.47656 175.859 9.39453 177.422 11.2305C178.997 13.0664 179.785 15.6641 179.785 19.0234V20.9375H165.977C166.12 22.6823 166.699 24.0625 167.715 25.0781C168.743 26.0938 170.033 26.6016 171.582 26.6016C173.757 26.6016 175.527 25.7227 176.895 23.9648L179.453 26.4062C178.607 27.6693 177.474 28.6523 176.055 29.3555C174.648 30.0456 173.066 30.3906 171.309 30.3906ZM170.742 12.2852C169.44 12.2852 168.385 12.7409 167.578 13.6523C166.784 14.5638 166.276 15.8333 166.055 17.4609H175.098V17.1094C174.993 15.5208 174.57 14.3229 173.828 13.5156C173.086 12.6953 172.057 12.2852 170.742 12.2852ZM203.031 19.6484C203.031 22.9297 202.296 25.5404 200.824 27.4805C199.366 29.4206 197.354 30.3906 194.789 30.3906C192.315 30.3906 190.388 29.4987 189.008 27.7148L188.773 30H184.477V0H189.223V10.8984C190.59 9.28385 192.432 8.47656 194.75 8.47656C197.328 8.47656 199.353 9.43359 200.824 11.3477C202.296 13.2617 203.031 15.9375 203.031 19.375V19.6484ZM198.285 19.2383C198.285 16.9466 197.882 15.2279 197.074 14.082C196.267 12.9362 195.095 12.3633 193.559 12.3633C191.501 12.3633 190.056 13.2617 189.223 15.0586V23.7695C190.069 25.6055 191.527 26.5234 193.598 26.5234C195.082 26.5234 196.228 25.9701 197.035 24.8633C197.842 23.7565 198.259 22.0833 198.285 19.8438V19.2383ZM220.652 30C220.444 29.5964 220.262 28.9388 220.105 28.0273C218.595 29.6029 216.746 30.3906 214.559 30.3906C212.436 30.3906 210.704 29.7852 209.363 28.5742C208.022 27.3633 207.352 25.8659 207.352 24.082C207.352 21.8294 208.185 20.1042 209.852 18.9062C211.531 17.6953 213.927 17.0898 217.039 17.0898H219.949V15.7031C219.949 14.6094 219.643 13.737 219.031 13.0859C218.419 12.4219 217.488 12.0898 216.238 12.0898C215.158 12.0898 214.272 12.3633 213.582 12.9102C212.892 13.444 212.547 14.1276 212.547 14.9609H207.801C207.801 13.8021 208.185 12.7214 208.953 11.7188C209.721 10.7031 210.763 9.90885 212.078 9.33594C213.406 8.76302 214.884 8.47656 216.512 8.47656C218.986 8.47656 220.958 9.10156 222.43 10.3516C223.901 11.5885 224.656 13.3333 224.695 15.5859V25.1172C224.695 27.0182 224.962 28.5352 225.496 29.668V30H220.652ZM215.438 26.582C216.375 26.582 217.254 26.3542 218.074 25.8984C218.908 25.4427 219.533 24.8307 219.949 24.0625V20.0781H217.391C215.633 20.0781 214.311 20.3841 213.426 20.9961C212.54 21.6081 212.098 22.474 212.098 23.5938C212.098 24.5052 212.397 25.2344 212.996 25.7812C213.608 26.3151 214.422 26.582 215.438 26.582ZM229.836 19.2773C229.836 15.9961 230.604 13.3789 232.141 11.4258C233.69 9.45964 235.741 8.47656 238.293 8.47656C240.702 8.47656 242.596 9.31641 243.977 10.9961L244.191 8.86719H248.469V29.3555C248.469 32.1289 247.603 34.3164 245.871 35.918C244.152 37.5195 241.828 38.3203 238.898 38.3203C237.349 38.3203 235.832 37.9948 234.348 37.3438C232.876 36.7057 231.757 35.8659 230.988 34.8242L233.234 31.9727C234.693 33.7044 236.49 34.5703 238.625 34.5703C240.201 34.5703 241.444 34.1406 242.355 33.2812C243.267 32.4349 243.723 31.1849 243.723 29.5312V28.1055C242.355 29.6289 240.533 30.3906 238.254 30.3906C235.78 30.3906 233.755 29.4076 232.18 27.4414C230.617 25.4753 229.836 22.7539 229.836 19.2773ZM234.562 19.6875C234.562 21.8099 234.992 23.4831 235.852 24.707C236.724 25.918 237.928 26.5234 239.465 26.5234C241.379 26.5234 242.798 25.7031 243.723 24.0625V14.7656C242.824 13.1641 241.418 12.3633 239.504 12.3633C237.941 12.3633 236.724 12.9818 235.852 14.2188C234.992 15.4557 234.562 17.2786 234.562 19.6875ZM266.988 30C266.78 29.5964 266.598 28.9388 266.441 28.0273C264.931 29.6029 263.082 30.3906 260.895 30.3906C258.772 30.3906 257.04 29.7852 255.699 28.5742C254.358 27.3633 253.688 25.8659 253.688 24.082C253.688 21.8294 254.521 20.1042 256.188 18.9062C257.867 17.6953 260.263 17.0898 263.375 17.0898H266.285V15.7031C266.285 14.6094 265.979 13.737 265.367 13.0859C264.755 12.4219 263.824 12.0898 262.574 12.0898C261.493 12.0898 260.608 12.3633 259.918 12.9102C259.228 13.444 258.883 14.1276 258.883 14.9609H254.137C254.137 13.8021 254.521 12.7214 255.289 11.7188C256.057 10.7031 257.099 9.90885 258.414 9.33594C259.742 8.76302 261.22 8.47656 262.848 8.47656C265.322 8.47656 267.294 9.10156 268.766 10.3516C270.237 11.5885 270.992 13.3333 271.031 15.5859V25.1172C271.031 27.0182 271.298 28.5352 271.832 29.668V30H266.988ZM261.773 26.582C262.711 26.582 263.59 26.3542 264.41 25.8984C265.243 25.4427 265.868 24.8307 266.285 24.0625V20.0781H263.727C261.969 20.0781 260.647 20.3841 259.762 20.9961C258.876 21.6081 258.434 22.474 258.434 23.5938C258.434 24.5052 258.733 25.2344 259.332 25.7812C259.944 26.3151 260.758 26.582 261.773 26.582ZM282.051 30H277.305V8.86719H282.051V30ZM277.012 3.37891C277.012 2.64974 277.24 2.04427 277.695 1.5625C278.164 1.08073 278.828 0.839844 279.688 0.839844C280.547 0.839844 281.211 1.08073 281.68 1.5625C282.148 2.04427 282.383 2.64974 282.383 3.37891C282.383 4.09505 282.148 4.69401 281.68 5.17578C281.211 5.64453 280.547 5.87891 279.688 5.87891C278.828 5.87891 278.164 5.64453 277.695 5.17578C277.24 4.69401 277.012 4.09505 277.012 3.37891Z" fill="#091133"/>
</svg>
