<svg width="360" height="105" viewBox="0 0 360 105" fill="none" xmlns="http://www.w3.org/2000/svg">
<path d="M25.1953 22.9688L29.5703 1.5625H34.4727L27.9102 30H23.1836L17.7734 9.23828L12.2461 30H7.5L0.9375 1.5625H5.83984L10.2539 22.9297L15.6836 1.5625H19.8242L25.1953 22.9688ZM47.3086 30.3906C44.3008 30.3906 41.8594 29.4466 39.9844 27.5586C38.1224 25.6576 37.1914 23.1315 37.1914 19.9805V19.3945C37.1914 17.2852 37.5951 15.4036 38.4023 13.75C39.2227 12.0833 40.3685 10.7878 41.8398 9.86328C43.3112 8.9388 44.9518 8.47656 46.7617 8.47656C49.6393 8.47656 51.8594 9.39453 53.4219 11.2305C54.9974 13.0664 55.7852 15.6641 55.7852 19.0234V20.9375H41.9766C42.1198 22.6823 42.6992 24.0625 43.7148 25.0781C44.7435 26.0938 46.0326 26.6016 47.582 26.6016C49.7565 26.6016 51.5273 25.7227 52.8945 23.9648L55.4531 26.4062C54.6068 27.6693 53.474 28.6523 52.0547 29.3555C50.6484 30.0456 49.0664 30.3906 47.3086 30.3906ZM46.7422 12.2852C45.4401 12.2852 44.3854 12.7409 43.5781 13.6523C42.7839 14.5638 42.276 15.8333 42.0547 17.4609H51.0977V17.1094C50.9935 15.5208 50.5703 14.3229 49.8281 13.5156C49.0859 12.6953 48.0573 12.2852 46.7422 12.2852ZM79.0312 19.6484C79.0312 22.9297 78.2956 25.5404 76.8242 27.4805C75.3659 29.4206 73.3542 30.3906 70.7891 30.3906C68.3151 30.3906 66.388 29.4987 65.0078 27.7148L64.7734 30H60.4766V0H65.2227V10.8984C66.5898 9.28385 68.4323 8.47656 70.75 8.47656C73.3281 8.47656 75.3529 9.43359 76.8242 11.3477C78.2956 13.2617 79.0312 15.9375 79.0312 19.375V19.6484ZM74.2852 19.2383C74.2852 16.9466 73.8815 15.2279 73.0742 14.082C72.2669 12.9362 71.0951 12.3633 69.5586 12.3633C67.5013 12.3633 66.056 13.2617 65.2227 15.0586V23.7695C66.069 25.6055 67.5273 26.5234 69.5977 26.5234C71.082 26.5234 72.2279 25.9701 73.0352 24.8633C73.8424 23.7565 74.2591 22.0833 74.2852 19.8438V19.2383ZM95.8711 24.2578C95.8711 23.4115 95.5195 22.7669 94.8164 22.3242C94.1263 21.8815 92.974 21.4909 91.3594 21.1523C89.7448 20.8138 88.3971 20.3841 87.3164 19.8633C84.9466 18.7174 83.7617 17.0573 83.7617 14.8828C83.7617 13.0599 84.5299 11.5365 86.0664 10.3125C87.6029 9.08854 89.556 8.47656 91.9258 8.47656C94.4518 8.47656 96.4896 9.10156 98.0391 10.3516C99.6016 11.6016 100.383 13.2227 100.383 15.2148H95.6367C95.6367 14.3034 95.2982 13.5482 94.6211 12.9492C93.944 12.3372 93.0456 12.0312 91.9258 12.0312C90.8841 12.0312 90.0312 12.2721 89.3672 12.7539C88.7161 13.2357 88.3906 13.8802 88.3906 14.6875C88.3906 15.4167 88.6966 15.9831 89.3086 16.3867C89.9206 16.7904 91.1576 17.2005 93.0195 17.6172C94.8815 18.0208 96.3398 18.5091 97.3945 19.082C98.4622 19.6419 99.25 20.319 99.7578 21.1133C100.279 21.9076 100.539 22.8711 100.539 24.0039C100.539 25.9049 99.7513 27.4479 98.1758 28.6328C96.6003 29.8047 94.5365 30.3906 91.9844 30.3906C90.2526 30.3906 88.7096 30.0781 87.3555 29.4531C86.0013 28.8281 84.9466 27.9688 84.1914 26.875C83.4362 25.7812 83.0586 24.6029 83.0586 23.3398H87.668C87.7331 24.4596 88.1562 25.3255 88.9375 25.9375C89.7188 26.5365 90.7539 26.8359 92.043 26.8359C93.293 26.8359 94.2435 26.6016 94.8945 26.1328C95.5456 25.651 95.8711 25.026 95.8711 24.2578ZM110.738 30H105.992V8.86719H110.738V30ZM105.699 3.37891C105.699 2.64974 105.927 2.04427 106.383 1.5625C106.852 1.08073 107.516 0.839844 108.375 0.839844C109.234 0.839844 109.898 1.08073 110.367 1.5625C110.836 2.04427 111.07 2.64974 111.07 3.37891C111.07 4.09505 110.836 4.69401 110.367 5.17578C109.898 5.64453 109.234 5.87891 108.375 5.87891C107.516 5.87891 106.852 5.64453 106.383 5.17578C105.927 4.69401 105.699 4.09505 105.699 3.37891ZM122.871 3.73047V8.86719H126.602V12.3828H122.871V24.1797C122.871 24.987 123.027 25.5729 123.34 25.9375C123.665 26.2891 124.238 26.4648 125.059 26.4648C125.605 26.4648 126.159 26.3997 126.719 26.2695V29.9414C125.638 30.2409 124.596 30.3906 123.594 30.3906C119.948 30.3906 118.125 28.3789 118.125 24.3555V12.3828H114.648V8.86719H118.125V3.73047H122.871ZM140.551 30.3906C137.543 30.3906 135.102 29.4466 133.227 27.5586C131.365 25.6576 130.434 23.1315 130.434 19.9805V19.3945C130.434 17.2852 130.837 15.4036 131.645 13.75C132.465 12.0833 133.611 10.7878 135.082 9.86328C136.553 8.9388 138.194 8.47656 140.004 8.47656C142.882 8.47656 145.102 9.39453 146.664 11.2305C148.24 13.0664 149.027 15.6641 149.027 19.0234V20.9375H135.219C135.362 22.6823 135.941 24.0625 136.957 25.0781C137.986 26.0938 139.275 26.6016 140.824 26.6016C142.999 26.6016 144.77 25.7227 146.137 23.9648L148.695 26.4062C147.849 27.6693 146.716 28.6523 145.297 29.3555C143.891 30.0456 142.309 30.3906 140.551 30.3906ZM139.984 12.2852C138.682 12.2852 137.628 12.7409 136.82 13.6523C136.026 14.5638 135.518 15.8333 135.297 17.4609H144.34V17.1094C144.236 15.5208 143.812 14.3229 143.07 13.5156C142.328 12.6953 141.299 12.2852 139.984 12.2852ZM170.09 19.4336V30H165.148V1.5625H176.027C179.204 1.5625 181.724 2.38932 183.586 4.04297C185.461 5.69661 186.398 7.88411 186.398 10.6055C186.398 13.3919 185.48 15.5599 183.645 17.1094C181.822 18.6589 179.263 19.4336 175.969 19.4336H170.09ZM170.09 15.4688H176.027C177.785 15.4688 179.126 15.0586 180.051 14.2383C180.975 13.4049 181.438 12.207 181.438 10.6445C181.438 9.10807 180.969 7.88411 180.031 6.97266C179.094 6.04818 177.805 5.57292 176.164 5.54688H170.09V15.4688ZM200.309 30.3906C197.301 30.3906 194.859 29.4466 192.984 27.5586C191.122 25.6576 190.191 23.1315 190.191 19.9805V19.3945C190.191 17.2852 190.595 15.4036 191.402 13.75C192.223 12.0833 193.368 10.7878 194.84 9.86328C196.311 8.9388 197.952 8.47656 199.762 8.47656C202.639 8.47656 204.859 9.39453 206.422 11.2305C207.997 13.0664 208.785 15.6641 208.785 19.0234V20.9375H194.977C195.12 22.6823 195.699 24.0625 196.715 25.0781C197.743 26.0938 199.033 26.6016 200.582 26.6016C202.757 26.6016 204.527 25.7227 205.895 23.9648L208.453 26.4062C207.607 27.6693 206.474 28.6523 205.055 29.3555C203.648 30.0456 202.066 30.3906 200.309 30.3906ZM199.742 12.2852C198.44 12.2852 197.385 12.7409 196.578 13.6523C195.784 14.5638 195.276 15.8333 195.055 17.4609H204.098V17.1094C203.993 15.5208 203.57 14.3229 202.828 13.5156C202.086 12.6953 201.057 12.2852 199.742 12.2852ZM217.891 8.86719L218.027 11.3086C219.59 9.42057 221.641 8.47656 224.18 8.47656C228.581 8.47656 230.82 10.9961 230.898 16.0352V30H226.152V16.3086C226.152 14.9674 225.859 13.9779 225.273 13.3398C224.701 12.6888 223.757 12.3633 222.441 12.3633C220.527 12.3633 219.102 13.2292 218.164 14.9609V30H213.418V8.86719H217.891ZM235.922 19.2773C235.922 15.9961 236.69 13.3789 238.227 11.4258C239.776 9.45964 241.827 8.47656 244.379 8.47656C246.788 8.47656 248.682 9.31641 250.062 10.9961L250.277 8.86719H254.555V29.3555C254.555 32.1289 253.689 34.3164 251.957 35.918C250.238 37.5195 247.914 38.3203 244.984 38.3203C243.435 38.3203 241.918 37.9948 240.434 37.3438C238.962 36.7057 237.842 35.8659 237.074 34.8242L239.32 31.9727C240.779 33.7044 242.576 34.5703 244.711 34.5703C246.286 34.5703 247.53 34.1406 248.441 33.2812C249.353 32.4349 249.809 31.1849 249.809 29.5312V28.1055C248.441 29.6289 246.618 30.3906 244.34 30.3906C241.866 30.3906 239.841 29.4076 238.266 27.4414C236.703 25.4753 235.922 22.7539 235.922 19.2773ZM240.648 19.6875C240.648 21.8099 241.078 23.4831 241.938 24.707C242.81 25.918 244.014 26.5234 245.551 26.5234C247.465 26.5234 248.884 25.7031 249.809 24.0625V14.7656C248.91 13.1641 247.504 12.3633 245.59 12.3633C244.027 12.3633 242.81 12.9818 241.938 14.2188C241.078 15.4557 240.648 17.2786 240.648 19.6875ZM273.074 30C272.866 29.5964 272.684 28.9388 272.527 28.0273C271.017 29.6029 269.168 30.3906 266.98 30.3906C264.858 30.3906 263.126 29.7852 261.785 28.5742C260.444 27.3633 259.773 25.8659 259.773 24.082C259.773 21.8294 260.607 20.1042 262.273 18.9062C263.953 17.6953 266.349 17.0898 269.461 17.0898H272.371V15.7031C272.371 14.6094 272.065 13.737 271.453 13.0859C270.841 12.4219 269.91 12.0898 268.66 12.0898C267.579 12.0898 266.694 12.3633 266.004 12.9102C265.314 13.444 264.969 14.1276 264.969 14.9609H260.223C260.223 13.8021 260.607 12.7214 261.375 11.7188C262.143 10.7031 263.185 9.90885 264.5 9.33594C265.828 8.76302 267.306 8.47656 268.934 8.47656C271.408 8.47656 273.38 9.10156 274.852 10.3516C276.323 11.5885 277.078 13.3333 277.117 15.5859V25.1172C277.117 27.0182 277.384 28.5352 277.918 29.668V30H273.074ZM267.859 26.582C268.797 26.582 269.676 26.3542 270.496 25.8984C271.329 25.4427 271.954 24.8307 272.371 24.0625V20.0781H269.812C268.055 20.0781 266.733 20.3841 265.848 20.9961C264.962 21.6081 264.52 22.474 264.52 23.5938C264.52 24.5052 264.819 25.2344 265.418 25.7812C266.03 26.3151 266.844 26.582 267.859 26.582ZM288.039 8.86719V31.875C288.039 34.0365 287.499 35.6836 286.418 36.8164C285.35 37.9622 283.781 38.5352 281.711 38.5352C280.839 38.5352 279.999 38.4245 279.191 38.2031V34.4531C279.686 34.5703 280.246 34.6289 280.871 34.6289C282.447 34.6289 283.254 33.7695 283.293 32.0508V8.86719H288.039ZM282.883 3.37891C282.883 2.64974 283.111 2.04427 283.566 1.5625C284.035 1.08073 284.699 0.839844 285.559 0.839844C286.418 0.839844 287.082 1.08073 287.551 1.5625C288.02 2.04427 288.254 2.64974 288.254 3.37891C288.254 4.09505 288.02 4.69401 287.551 5.17578C287.082 5.64453 286.418 5.87891 285.559 5.87891C284.699 5.87891 284.035 5.64453 283.566 5.17578C283.111 4.69401 282.883 4.09505 282.883 3.37891ZM306.93 27.9297C305.536 29.5703 303.557 30.3906 300.992 30.3906C298.701 30.3906 296.962 29.7201 295.777 28.3789C294.605 27.0378 294.02 25.0977 294.02 22.5586V8.86719H298.766V22.5C298.766 25.1823 299.879 26.5234 302.105 26.5234C304.41 26.5234 305.966 25.6966 306.773 24.043V8.86719H311.52V30H307.047L306.93 27.9297ZM329.98 30C329.772 29.5964 329.59 28.9388 329.434 28.0273C327.923 29.6029 326.074 30.3906 323.887 30.3906C321.764 30.3906 320.033 29.7852 318.691 28.5742C317.35 27.3633 316.68 25.8659 316.68 24.082C316.68 21.8294 317.513 20.1042 319.18 18.9062C320.859 17.6953 323.255 17.0898 326.367 17.0898H329.277V15.7031C329.277 14.6094 328.971 13.737 328.359 13.0859C327.747 12.4219 326.816 12.0898 325.566 12.0898C324.486 12.0898 323.6 12.3633 322.91 12.9102C322.22 13.444 321.875 14.1276 321.875 14.9609H317.129C317.129 13.8021 317.513 12.7214 318.281 11.7188C319.049 10.7031 320.091 9.90885 321.406 9.33594C322.734 8.76302 324.212 8.47656 325.84 8.47656C328.314 8.47656 330.286 9.10156 331.758 10.3516C333.229 11.5885 333.984 13.3333 334.023 15.5859V25.1172C334.023 27.0182 334.29 28.5352 334.824 29.668V30H329.98ZM324.766 26.582C325.703 26.582 326.582 26.3542 327.402 25.8984C328.236 25.4427 328.861 24.8307 329.277 24.0625V20.0781H326.719C324.961 20.0781 323.639 20.3841 322.754 20.9961C321.868 21.6081 321.426 22.474 321.426 23.5938C321.426 24.5052 321.725 25.2344 322.324 25.7812C322.936 26.3151 323.75 26.582 324.766 26.582ZM344.398 8.86719L344.535 11.3086C346.098 9.42057 348.148 8.47656 350.688 8.47656C355.089 8.47656 357.328 10.9961 357.406 16.0352V30H352.66V16.3086C352.66 14.9674 352.367 13.9779 351.781 13.3398C351.208 12.6888 350.264 12.3633 348.949 12.3633C347.035 12.3633 345.609 13.2292 344.672 14.9609V30H339.926V8.86719H344.398ZM9.29688 67.5625L17.5 89.3594L25.6836 67.5625H32.0703V96H27.1484V86.625L27.6367 74.0859L19.2383 96H15.7031L7.32422 74.1055L7.8125 86.625V96H2.89062V67.5625H9.29688ZM47.7773 96.3906C44.7695 96.3906 42.3281 95.4466 40.4531 93.5586C38.5911 91.6576 37.6602 89.1315 37.6602 85.9805V85.3945C37.6602 83.2852 38.0638 81.4036 38.8711 79.75C39.6914 78.0833 40.8372 76.7878 42.3086 75.8633C43.7799 74.9388 45.4206 74.4766 47.2305 74.4766C50.1081 74.4766 52.3281 75.3945 53.8906 77.2305C55.4661 79.0664 56.2539 81.6641 56.2539 85.0234V86.9375H42.4453C42.5885 88.6823 43.168 90.0625 44.1836 91.0781C45.2122 92.0938 46.5013 92.6016 48.0508 92.6016C50.2253 92.6016 51.9961 91.7227 53.3633 89.9648L55.9219 92.4062C55.0755 93.6693 53.9427 94.6523 52.5234 95.3555C51.1172 96.0456 49.5352 96.3906 47.7773 96.3906ZM47.2109 78.2852C45.9089 78.2852 44.8542 78.7409 44.0469 79.6523C43.2526 80.5638 42.7448 81.8333 42.5234 83.4609H51.5664V83.1094C51.4622 81.5208 51.0391 80.3229 50.2969 79.5156C49.5547 78.6953 48.526 78.2852 47.2109 78.2852ZM65.3594 74.8672L65.4961 77.3086C67.0586 75.4206 69.1094 74.4766 71.6484 74.4766C76.0495 74.4766 78.2891 76.9961 78.3672 82.0352V96H73.6211V82.3086C73.6211 80.9674 73.3281 79.9779 72.7422 79.3398C72.1693 78.6888 71.2253 78.3633 69.9102 78.3633C67.9961 78.3633 66.5703 79.2292 65.6328 80.9609V96H60.8867V74.8672H65.3594ZM83.3906 85.2773C83.3906 81.9961 84.1589 79.3789 85.6953 77.4258C87.2448 75.4596 89.2956 74.4766 91.8477 74.4766C94.2565 74.4766 96.151 75.3164 97.5312 76.9961L97.7461 74.8672H102.023V95.3555C102.023 98.1289 101.158 100.316 99.4258 101.918C97.707 103.52 95.3828 104.32 92.4531 104.32C90.9036 104.32 89.3867 103.995 87.9023 103.344C86.431 102.706 85.3112 101.866 84.543 100.824L86.7891 97.9727C88.2474 99.7044 90.0443 100.57 92.1797 100.57C93.7552 100.57 94.9987 100.141 95.9102 99.2812C96.8216 98.4349 97.2773 97.1849 97.2773 95.5312V94.1055C95.9102 95.6289 94.0872 96.3906 91.8086 96.3906C89.3346 96.3906 87.3099 95.4076 85.7344 93.4414C84.1719 91.4753 83.3906 88.7539 83.3906 85.2773ZM88.1172 85.6875C88.1172 87.8099 88.5469 89.4831 89.4062 90.707C90.2786 91.918 91.4831 92.5234 93.0195 92.5234C94.9336 92.5234 96.3529 91.7031 97.2773 90.0625V80.7656C96.3789 79.1641 94.9727 78.3633 93.0586 78.3633C91.4961 78.3633 90.2786 78.9818 89.4062 80.2188C88.5469 81.4557 88.1172 83.2786 88.1172 85.6875ZM120.543 96C120.335 95.5964 120.152 94.9388 119.996 94.0273C118.486 95.6029 116.637 96.3906 114.449 96.3906C112.327 96.3906 110.595 95.7852 109.254 94.5742C107.913 93.3633 107.242 91.8659 107.242 90.082C107.242 87.8294 108.076 86.1042 109.742 84.9062C111.422 83.6953 113.818 83.0898 116.93 83.0898H119.84V81.7031C119.84 80.6094 119.534 79.737 118.922 79.0859C118.31 78.4219 117.379 78.0898 116.129 78.0898C115.048 78.0898 114.163 78.3633 113.473 78.9102C112.783 79.444 112.438 80.1276 112.438 80.9609H107.691C107.691 79.8021 108.076 78.7214 108.844 77.7188C109.612 76.7031 110.654 75.9089 111.969 75.3359C113.297 74.763 114.775 74.4766 116.402 74.4766C118.876 74.4766 120.849 75.1016 122.32 76.3516C123.792 77.5885 124.547 79.3333 124.586 81.5859V91.1172C124.586 93.0182 124.853 94.5352 125.387 95.668V96H120.543ZM115.328 92.582C116.266 92.582 117.145 92.3542 117.965 91.8984C118.798 91.4427 119.423 90.8307 119.84 90.0625V86.0781H117.281C115.523 86.0781 114.202 86.3841 113.316 86.9961C112.431 87.6081 111.988 88.474 111.988 89.5938C111.988 90.5052 112.288 91.2344 112.887 91.7812C113.499 92.3151 114.312 92.582 115.328 92.582ZM129.668 85.2773C129.668 82.0221 130.423 79.4115 131.934 77.4453C133.444 75.4661 135.469 74.4766 138.008 74.4766C140.247 74.4766 142.057 75.2578 143.438 76.8203V66H148.184V96H143.887L143.652 93.8125C142.233 95.5312 140.339 96.3906 137.969 96.3906C135.495 96.3906 133.49 95.3945 131.953 93.4023C130.43 91.4102 129.668 88.7018 129.668 85.2773ZM134.414 85.6875C134.414 87.8359 134.824 89.5156 135.645 90.7266C136.478 91.9245 137.656 92.5234 139.18 92.5234C141.12 92.5234 142.539 91.6576 143.438 89.9258V80.9023C142.565 79.2096 141.159 78.3633 139.219 78.3633C137.682 78.3633 136.497 78.9753 135.664 80.1992C134.831 81.4102 134.414 83.2396 134.414 85.6875ZM166.762 96C166.553 95.5964 166.371 94.9388 166.215 94.0273C164.704 95.6029 162.855 96.3906 160.668 96.3906C158.546 96.3906 156.814 95.7852 155.473 94.5742C154.132 93.3633 153.461 91.8659 153.461 90.082C153.461 87.8294 154.294 86.1042 155.961 84.9062C157.641 83.6953 160.036 83.0898 163.148 83.0898H166.059V81.7031C166.059 80.6094 165.753 79.737 165.141 79.0859C164.529 78.4219 163.598 78.0898 162.348 78.0898C161.267 78.0898 160.382 78.3633 159.691 78.9102C159.001 79.444 158.656 80.1276 158.656 80.9609H153.91C153.91 79.8021 154.294 78.7214 155.062 77.7188C155.831 76.7031 156.872 75.9089 158.188 75.3359C159.516 74.763 160.993 74.4766 162.621 74.4766C165.095 74.4766 167.068 75.1016 168.539 76.3516C170.01 77.5885 170.766 79.3333 170.805 81.5859V91.1172C170.805 93.0182 171.072 94.5352 171.605 95.668V96H166.762ZM161.547 92.582C162.484 92.582 163.363 92.3542 164.184 91.8984C165.017 91.4427 165.642 90.8307 166.059 90.0625V86.0781H163.5C161.742 86.0781 160.421 86.3841 159.535 86.9961C158.65 87.6081 158.207 88.474 158.207 89.5938C158.207 90.5052 158.507 91.2344 159.105 91.7812C159.717 92.3151 160.531 92.582 161.547 92.582ZM183.641 86.9375L181.531 89.1055V96H176.785V66H181.531V83.3047L183.016 81.4492L188.855 74.8672H194.559L186.707 83.6758L195.398 96H189.91L183.641 86.9375ZM211.301 96C211.092 95.5964 210.91 94.9388 210.754 94.0273C209.243 95.6029 207.395 96.3906 205.207 96.3906C203.085 96.3906 201.353 95.7852 200.012 94.5742C198.671 93.3633 198 91.8659 198 90.082C198 87.8294 198.833 86.1042 200.5 84.9062C202.18 83.6953 204.576 83.0898 207.688 83.0898H210.598V81.7031C210.598 80.6094 210.292 79.737 209.68 79.0859C209.068 78.4219 208.137 78.0898 206.887 78.0898C205.806 78.0898 204.921 78.3633 204.23 78.9102C203.54 79.444 203.195 80.1276 203.195 80.9609H198.449C198.449 79.8021 198.833 78.7214 199.602 77.7188C200.37 76.7031 201.411 75.9089 202.727 75.3359C204.055 74.763 205.533 74.4766 207.16 74.4766C209.634 74.4766 211.607 75.1016 213.078 76.3516C214.549 77.5885 215.305 79.3333 215.344 81.5859V91.1172C215.344 93.0182 215.611 94.5352 216.145 95.668V96H211.301ZM206.086 92.582C207.023 92.582 207.902 92.3542 208.723 91.8984C209.556 91.4427 210.181 90.8307 210.598 90.0625V86.0781H208.039C206.281 86.0781 204.96 86.3841 204.074 86.9961C203.189 87.6081 202.746 88.474 202.746 89.5938C202.746 90.5052 203.046 91.2344 203.645 91.7812C204.257 92.3151 205.07 92.582 206.086 92.582ZM225.719 74.8672L225.855 77.3086C227.418 75.4206 229.469 74.4766 232.008 74.4766C236.409 74.4766 238.648 76.9961 238.727 82.0352V96H233.98V82.3086C233.98 80.9674 233.688 79.9779 233.102 79.3398C232.529 78.6888 231.585 78.3633 230.27 78.3633C228.355 78.3633 226.93 79.2292 225.992 80.9609V96H221.246V74.8672H225.719ZM271.918 89.3789H260.902L258.598 96H253.461L264.203 67.5625H268.637L279.398 96H274.242L271.918 89.3789ZM262.289 85.3945H270.531L266.41 73.5977L262.289 85.3945ZM291.863 92.6016C293.048 92.6016 294.031 92.2565 294.812 91.5664C295.594 90.8763 296.01 90.0234 296.062 89.0078H300.535C300.483 90.3229 300.073 91.5534 299.305 92.6992C298.536 93.832 297.495 94.7305 296.18 95.3945C294.865 96.0586 293.445 96.3906 291.922 96.3906C288.966 96.3906 286.622 95.4336 284.891 93.5195C283.159 91.6055 282.293 88.9622 282.293 85.5898V85.1016C282.293 81.8854 283.152 79.3138 284.871 77.3867C286.59 75.4466 288.934 74.4766 291.902 74.4766C294.415 74.4766 296.46 75.2122 298.035 76.6836C299.624 78.1419 300.457 80.0625 300.535 82.4453H296.062C296.01 81.2344 295.594 80.2383 294.812 79.457C294.044 78.6758 293.061 78.2852 291.863 78.2852C290.327 78.2852 289.142 78.8451 288.309 79.9648C287.475 81.0716 287.052 82.7578 287.039 85.0234V85.7852C287.039 88.0768 287.449 89.7891 288.27 90.9219C289.103 92.0417 290.301 92.6016 291.863 92.6016ZM317.746 96C317.538 95.5964 317.355 94.9388 317.199 94.0273C315.689 95.6029 313.84 96.3906 311.652 96.3906C309.53 96.3906 307.798 95.7852 306.457 94.5742C305.116 93.3633 304.445 91.8659 304.445 90.082C304.445 87.8294 305.279 86.1042 306.945 84.9062C308.625 83.6953 311.021 83.0898 314.133 83.0898H317.043V81.7031C317.043 80.6094 316.737 79.737 316.125 79.0859C315.513 78.4219 314.582 78.0898 313.332 78.0898C312.251 78.0898 311.366 78.3633 310.676 78.9102C309.986 79.444 309.641 80.1276 309.641 80.9609H304.895C304.895 79.8021 305.279 78.7214 306.047 77.7188C306.815 76.7031 307.857 75.9089 309.172 75.3359C310.5 74.763 311.978 74.4766 313.605 74.4766C316.079 74.4766 318.052 75.1016 319.523 76.3516C320.995 77.5885 321.75 79.3333 321.789 81.5859V91.1172C321.789 93.0182 322.056 94.5352 322.59 95.668V96H317.746ZM312.531 92.582C313.469 92.582 314.348 92.3542 315.168 91.8984C316.001 91.4427 316.626 90.8307 317.043 90.0625V86.0781H314.484C312.727 86.0781 311.405 86.3841 310.52 86.9961C309.634 87.6081 309.191 88.474 309.191 89.5938C309.191 90.5052 309.491 91.2344 310.09 91.7812C310.702 92.3151 311.516 92.582 312.531 92.582ZM338.824 79.2031C338.199 79.099 337.555 79.0469 336.891 79.0469C334.716 79.0469 333.251 79.8802 332.496 81.5469V96H327.75V74.8672H332.281L332.398 77.2305C333.544 75.3945 335.133 74.4766 337.164 74.4766C337.841 74.4766 338.401 74.5677 338.844 74.75L338.824 79.2031ZM354.863 96C354.655 95.5964 354.473 94.9388 354.316 94.0273C352.806 95.6029 350.957 96.3906 348.77 96.3906C346.647 96.3906 344.915 95.7852 343.574 94.5742C342.233 93.3633 341.562 91.8659 341.562 90.082C341.562 87.8294 342.396 86.1042 344.062 84.9062C345.742 83.6953 348.138 83.0898 351.25 83.0898H354.16V81.7031C354.16 80.6094 353.854 79.737 353.242 79.0859C352.63 78.4219 351.699 78.0898 350.449 78.0898C349.368 78.0898 348.483 78.3633 347.793 78.9102C347.103 79.444 346.758 80.1276 346.758 80.9609H342.012C342.012 79.8021 342.396 78.7214 343.164 77.7188C343.932 76.7031 344.974 75.9089 346.289 75.3359C347.617 74.763 349.095 74.4766 350.723 74.4766C353.197 74.4766 355.169 75.1016 356.641 76.3516C358.112 77.5885 358.867 79.3333 358.906 81.5859V91.1172C358.906 93.0182 359.173 94.5352 359.707 95.668V96H354.863ZM349.648 92.582C350.586 92.582 351.465 92.3542 352.285 91.8984C353.118 91.4427 353.743 90.8307 354.16 90.0625V86.0781H351.602C349.844 86.0781 348.522 86.3841 347.637 86.9961C346.751 87.6081 346.309 88.474 346.309 89.5938C346.309 90.5052 346.608 91.2344 347.207 91.7812C347.819 92.3151 348.633 92.582 349.648 92.582Z" fill="#091133"/>
</svg>
